<svg width="32" height="32" viewBox="0 0 32 32" fill="none" xmlns="http://www.w3.org/2000/svg">
<path fill-rule="evenodd" clip-rule="evenodd" d="M15.9998 26.6666C21.8909 26.6666 26.6665 21.891 26.6665 16C26.6665 10.1089 21.8909 5.33329 15.9998 5.33329C10.1088 5.33329 5.33317 10.1089 5.33317 16C5.33317 21.891 10.1088 26.6666 15.9998 26.6666ZM15.9998 29.3333C23.3636 29.3333 29.3332 23.3637 29.3332 16C29.3332 8.63616 23.3636 2.66663 15.9998 2.66663C8.63604 2.66663 2.6665 8.63616 2.6665 16C2.6665 23.3637 8.63604 29.3333 15.9998 29.3333Z" fill="#DCDFE6"/>
<path d="M20.6321 28.5068C20.1586 25.1332 19.3698 22.0714 18.2596 19.1773C15.5418 20.4949 12.5021 22.7972 8.32242 26.9026C7.59114 26.3866 6.91409 25.799 6.30149 25.15C10.6913 20.8209 14.0441 18.2326 17.2213 16.7178C16.8137 15.8342 16.3742 14.9632 15.9025 14.1001C12.1619 15.279 7.89674 15.9002 2.6665 15.989C2.66724 15.0738 2.76021 14.1801 2.93661 13.3167C7.55252 13.2178 11.2865 12.6836 14.5184 11.734C13.0183 9.32697 11.2601 6.95102 9.23944 4.50524C10.0273 4.04086 10.8671 3.65518 11.748 3.35901C13.787 5.86509 15.5736 8.32818 17.1034 10.8471C19.9777 9.71102 22.5253 8.17773 25.0684 6.2256C25.7221 6.83232 26.3148 7.50381 26.8362 8.22985C24.1912 10.2758 21.4938 11.9341 18.4388 13.1842C18.8884 14.0238 19.3101 14.8728 19.7041 15.7344C22.7262 14.7769 25.701 14.678 29.2674 14.6678C29.3109 15.106 29.3332 15.5505 29.3332 16.0001C29.3332 16.4506 29.3108 16.896 29.2672 17.335C25.8214 17.3473 23.266 17.4444 20.7424 18.2041C21.826 21.0248 22.6276 24.0068 23.1422 27.261C22.3574 27.7598 21.5169 28.1789 20.6321 28.5068Z" fill="#DCDFE6"/>
</svg>
