<svg width="32" height="32" viewBox="0 0 32 32" fill="none" xmlns="http://www.w3.org/2000/svg">
<path fill-rule="evenodd" clip-rule="evenodd" d="M15.9998 26.6666C21.8909 26.6666 26.6665 21.891 26.6665 16C26.6665 10.1089 21.8909 5.33329 15.9998 5.33329C10.1088 5.33329 5.33317 10.1089 5.33317 16C5.33317 21.891 10.1088 26.6666 15.9998 26.6666ZM15.9998 29.3333C23.3636 29.3333 29.3332 23.3637 29.3332 16C29.3332 8.63616 23.3636 2.66663 15.9998 2.66663C8.63604 2.66663 2.6665 8.63616 2.6665 16C2.6665 23.3637 8.63604 29.3333 15.9998 29.3333Z" fill="#DCDFE6"/>
<path d="M15.9998 13.3334C15.9998 12.597 16.5968 12 17.3332 12H18.6665C19.4029 12 19.9998 11.4031 19.9998 10.6667C19.9998 9.93033 19.4029 9.33337 18.6665 9.33337H17.3332C15.124 9.33337 13.3332 11.1242 13.3332 13.3334V16H11.9998C11.2635 16 10.6665 16.597 10.6665 17.3334C10.6665 18.0698 11.2635 18.6667 11.9998 18.6667H13.3332V26.6667C13.3332 27.4031 13.9301 28 14.6665 28C15.4029 28 15.9998 27.4031 15.9998 26.6667V18.6667H18.6665C19.4029 18.6667 19.9998 18.0698 19.9998 17.3334C19.9998 16.597 19.4029 16 18.6665 16H15.9998V13.3334Z" fill="#DCDFE6"/>
</svg>
