<svg width="36" height="36" viewBox="0 0 36 36" fill="none" xmlns="http://www.w3.org/2000/svg">
<path d="M21.7794 35.4375C23.2154 35.4585 24.6392 35.1707 25.9543 34.5938C27.4483 33.9703 28.7213 32.9138 29.6094 31.5604C30.4976 30.207 30.9601 28.6186 30.9375 27C30.9375 21.9375 29.8125 20.8125 28.125 17.4375C26.4375 14.0625 28.125 10.6875 28.125 10.6875C26.7758 11.0295 25.5846 11.8236 24.75 12.9375C24.75 1.125 16.875 0.5625 16.875 0.5625C17.345 1.86718 17.4882 3.26713 17.2921 4.63994C17.096 6.01275 16.5665 7.31661 15.75 8.4375C12.9375 12.375 10.125 14.625 9 19.125C9 19.125 6.75 18 7.3125 15.75C7.3125 15.75 5.0625 19.6875 5.0625 25.875C5.0625 32.6599 10.4974 34.65 13.1726 35.2181C13.8841 35.3665 14.6092 35.44 15.336 35.4375H21.7794Z" fill="#FEBD55"/>
<path d="M13.9736 35.4375C13.9736 35.4375 8.1709 33.2618 8.1709 26.7334C8.1709 19.4805 13.2041 16.875 13.2041 16.875C13.2041 16.875 11.7979 19.4805 13.2486 20.2056C13.2486 20.2056 15.6758 12.3008 22.2041 10.125C22.2041 10.125 19.9243 12.5229 21.375 16.875C22.8257 21.2271 27.7403 22.2041 27.8291 27V27.5625C27.8862 29.1913 27.4552 30.8001 26.5916 32.1823C25.4734 33.9244 24.1824 35.4375 21.2271 35.4375H13.9736Z" fill="#FC9E20"/>
<path d="M14.625 35.4375C13.2934 34.8808 12.156 33.9431 11.3554 32.7422C10.5548 31.5414 10.1268 30.1308 10.125 28.6875C10.125 23.0625 12.9375 20.8125 12.9375 20.8125C12.9375 20.8125 12.9375 23.0625 14.0625 23.625C14.0625 23.625 15.1875 15.75 20.25 14.0625C20.25 14.0625 18.5625 15.1875 19.6875 18.5625C20.8125 21.9375 25.875 23.0625 25.875 28.6875V29.1774C25.8949 30.4954 25.5375 31.7915 24.845 32.913C24.3701 33.7019 23.6948 34.3511 22.8877 34.7945C22.0806 35.2379 21.1706 35.4597 20.25 35.4375H14.625Z" fill="#E03E3E"/>
<path d="M14.625 32.6249C14.5138 32.6249 14.405 32.5919 14.3126 32.5301C14.2201 32.4683 14.148 32.3804 14.1054 32.2777C14.0629 32.1749 14.0517 32.0618 14.0734 31.9527C14.0951 31.8436 14.1487 31.7434 14.2273 31.6647L20.9773 24.9147C21.0834 24.8123 21.2255 24.7556 21.373 24.7569C21.5205 24.7581 21.6615 24.8173 21.7658 24.9216C21.8701 25.0259 21.9293 25.167 21.9306 25.3144C21.9318 25.4619 21.8752 25.604 21.7727 25.7101L15.0227 32.4601C14.9172 32.5656 14.7742 32.6249 14.625 32.6249Z" fill="#FBFBFB"/>
<path d="M19.6875 33.1875C19.3537 33.1875 19.0275 33.0885 18.75 32.9031C18.4725 32.7177 18.2562 32.4541 18.1285 32.1458C18.0007 31.8374 17.9673 31.4981 18.0324 31.1708C18.0975 30.8434 18.2583 30.5428 18.4943 30.3068C18.7303 30.0708 19.0309 29.91 19.3583 29.8449C19.6856 29.7798 20.0249 29.8132 20.3333 29.941C20.6416 30.0687 20.9052 30.285 21.0906 30.5625C21.276 30.84 21.375 31.1662 21.375 31.5C21.375 31.9476 21.1972 32.3768 20.8807 32.6933C20.5643 33.0097 20.135 33.1875 19.6875 33.1875ZM19.6875 30.9375C19.5762 30.9375 19.4675 30.9705 19.375 31.0323C19.2825 31.0941 19.2104 31.182 19.1678 31.2847C19.1252 31.3875 19.1141 31.5006 19.1358 31.6097C19.1575 31.7189 19.2111 31.8191 19.2897 31.8978C19.3684 31.9764 19.4686 32.03 19.5778 32.0517C19.6869 32.0734 19.8 32.0623 19.9028 32.0197C20.0055 31.9771 20.0934 31.905 20.1552 31.8125C20.217 31.72 20.25 31.6113 20.25 31.5C20.25 31.3508 20.1907 31.2077 20.0852 31.1023C19.9798 30.9968 19.8367 30.9375 19.6875 30.9375Z" fill="#FBFBFB"/>
<path d="M16.3125 27.5625C15.9787 27.5625 15.6525 27.4635 15.375 27.2781C15.0975 27.0927 14.8812 26.8291 14.7535 26.5208C14.6257 26.2124 14.5923 25.8731 14.6574 25.5458C14.7225 25.2184 14.8833 24.9178 15.1193 24.6818C15.3553 24.4458 15.6559 24.285 15.9833 24.2199C16.3106 24.1548 16.6499 24.1882 16.9583 24.316C17.2666 24.4437 17.5302 24.66 17.7156 24.9375C17.901 25.215 18 25.5412 18 25.875C18 26.3226 17.8222 26.7518 17.5057 27.0683C17.1893 27.3847 16.7601 27.5625 16.3125 27.5625ZM16.3125 25.3125C16.2012 25.3125 16.0925 25.3455 16 25.4073C15.9075 25.4691 15.8354 25.557 15.7928 25.6597C15.7502 25.7625 15.7391 25.8756 15.7608 25.9847C15.7825 26.0939 15.8361 26.1941 15.9148 26.2728C15.9934 26.3514 16.0936 26.405 16.2028 26.4267C16.3119 26.4484 16.425 26.4373 16.5278 26.3947C16.6305 26.3521 16.7184 26.28 16.7802 26.1875C16.842 26.095 16.875 25.9863 16.875 25.875C16.875 25.7258 16.8157 25.5827 16.7102 25.4773C16.6048 25.3718 16.4617 25.3125 16.3125 25.3125Z" fill="#FBFBFB"/>
</svg>
