<svg width="33" height="30" viewBox="0 0 33 30" fill="none" xmlns="http://www.w3.org/2000/svg">
<path d="M26 27.6668L30.75 22.9168L26 18.1668M26 2.3335L30.75 7.0835L26 11.8335V2.3335Z" stroke="black" stroke-width="3" stroke-linecap="round" stroke-linejoin="round"/>
<path d="M2.25 7.08351H7C9.09963 7.08351 11.1133 7.91758 12.5979 9.40224C14.0826 10.8869 14.9167 12.9005 14.9167 15.0002C14.9167 17.0998 15.7507 19.1134 17.2354 20.5981C18.7201 22.0828 20.7337 22.9168 22.8333 22.9168H30.75M30.75 7.08351H22.8333C21.1214 7.08076 19.4552 7.63543 18.0865 8.66367M11.75 21.3351C10.3803 22.3639 8.71305 22.9191 7 22.9168H2.25" stroke="black" stroke-width="3" stroke-linecap="round" stroke-linejoin="round"/>
</svg>
