<svg width="34" height="26" viewBox="0 0 34 26" fill="none" xmlns="http://www.w3.org/2000/svg">
<path d="M10.0834 24.0833C11.8323 24.0833 13.2501 22.6656 13.2501 20.9167C13.2501 19.1678 11.8323 17.75 10.0834 17.75C8.33451 17.75 6.91675 19.1678 6.91675 20.9167C6.91675 22.6656 8.33451 24.0833 10.0834 24.0833Z" stroke="black" stroke-width="3.16667" stroke-linecap="round" stroke-linejoin="round"/>
<path d="M25.9168 24.0833C27.6658 24.0833 29.0835 22.6656 29.0835 20.9167C29.0835 19.1678 27.6658 17.75 25.9168 17.75C24.1679 17.75 22.7502 19.1678 22.7502 20.9167C22.7502 22.6656 24.1679 24.0833 25.9168 24.0833Z" stroke="black" stroke-width="3.16667" stroke-linecap="round" stroke-linejoin="round"/>
<path d="M6.91675 20.9165H3.75008V14.5832M2.16675 1.9165H19.5834V20.9165M13.2501 20.9165H22.7501M29.0834 20.9165H32.2501V11.4165M32.2501 11.4165H19.5834M32.2501 11.4165L27.5001 3.49984H19.5834M3.75008 8.24984H10.0834" stroke="black" stroke-width="3" stroke-linecap="round" stroke-linejoin="round"/>
</svg>
