<svg width="32" height="32" viewBox="0 0 32 32" fill="none" xmlns="http://www.w3.org/2000/svg">
<path d="M28.8199 9.8208H3.48653C2.61208 9.8208 1.9032 10.5297 1.9032 11.4041V14.5708C1.9032 15.4453 2.61208 16.1541 3.48653 16.1541H28.8199C29.6943 16.1541 30.4032 15.4453 30.4032 14.5708V11.4041C30.4032 10.5297 29.6943 9.8208 28.8199 9.8208Z" stroke="black" stroke-width="3" stroke-linecap="round" stroke-linejoin="round"/>
<path d="M9.02816 9.82068C7.97834 9.82068 6.97152 9.40364 6.22919 8.66131C5.48686 7.91898 5.06982 6.91216 5.06982 5.86235C5.06982 4.81253 5.48686 3.80571 6.22919 3.06338C6.97152 2.32105 7.97834 1.90401 9.02816 1.90401C10.5556 1.8774 12.0524 2.61851 13.3233 4.03068C14.5943 5.44286 15.5804 7.46057 16.1532 9.82068C16.7259 7.46057 17.712 5.44286 18.983 4.03068C20.2539 2.61851 21.7507 1.8774 23.2782 1.90401C24.328 1.90401 25.3348 2.32105 26.0771 3.06338C26.8195 3.80571 27.2365 4.81253 27.2365 5.86235C27.2365 6.91216 26.8195 7.91898 26.0771 8.66131C25.3348 9.40364 24.328 9.82068 23.2782 9.82068M16.1532 9.82068V30.404V9.82068ZM27.2365 16.154V27.2373C27.2365 28.0772 26.9029 28.8827 26.309 29.4765C25.7151 30.0704 24.9097 30.404 24.0698 30.404H8.23649C7.39664 30.404 6.59118 30.0704 5.99732 29.4765C5.40345 28.8827 5.06982 28.0772 5.06982 27.2373V16.154H27.2365Z" stroke="black" stroke-width="3" stroke-linecap="round" stroke-linejoin="round"/>
</svg>
