<svg width="32" height="32" viewBox="0 0 32 32" fill="none" xmlns="http://www.w3.org/2000/svg">
<path fill-rule="evenodd" clip-rule="evenodd" d="M21.3332 5.33329H10.6665C7.72098 5.33329 5.33317 7.72111 5.33317 10.6666V21.3333C5.33317 24.2788 7.72098 26.6666 10.6665 26.6666H21.3332C24.2786 26.6666 26.6665 24.2788 26.6665 21.3333V10.6666C26.6665 7.72111 24.2786 5.33329 21.3332 5.33329ZM10.6665 2.66663C6.24822 2.66663 2.6665 6.24835 2.6665 10.6666V21.3333C2.6665 25.7516 6.24822 29.3333 10.6665 29.3333H21.3332C25.7514 29.3333 29.3332 25.7516 29.3332 21.3333V10.6666C29.3332 6.24835 25.7514 2.66663 21.3332 2.66663H10.6665Z" fill="#DCDFE6"/>
<path d="M22.6668 10.6667C23.4032 10.6667 24.0002 10.0697 24.0002 9.33333C24.0002 8.59696 23.4032 8 22.6668 8C21.9304 8 21.3335 8.59696 21.3335 9.33333C21.3335 10.0697 21.9304 10.6667 22.6668 10.6667Z" fill="#DCDFE6"/>
<path fill-rule="evenodd" clip-rule="evenodd" d="M22.6668 16C22.6668 19.6819 19.682 22.6667 16.0002 22.6667C12.3183 22.6667 9.3335 19.6819 9.3335 16C9.3335 12.3181 12.3183 9.33337 16.0002 9.33337C19.682 9.33337 22.6668 12.3181 22.6668 16ZM20.0002 16C20.0002 18.2092 18.2094 20 16.0002 20C13.791 20 12.0002 18.2092 12.0002 16C12.0002 13.7908 13.791 12 16.0002 12C18.2094 12 20.0002 13.7908 20.0002 16Z" fill="#DCDFE6"/>
</svg>
