<svg width="32" height="32" viewBox="0 0 32 32" fill="none" xmlns="http://www.w3.org/2000/svg">
<path fill-rule="evenodd" clip-rule="evenodd" d="M4.24116 18.6664C2.0362 18.6727 0.612847 21.1845 1.97124 23.0876C3.9166 25.8128 7.44427 28 13.3336 28C22.4604 28 29.7866 20.5623 28.761 11.7748L30.2635 8.76973C31.3055 6.68571 29.4948 4.31496 27.21 4.77192L25.225 5.16892C24.6987 4.89124 24.154 4.68169 23.6886 4.52988C22.7814 4.23403 21.6834 4 20.667 4C18.8412 4 17.2655 4.46841 16.0132 5.40791C14.7752 6.33685 14.0779 7.55767 13.6952 8.67873C13.5188 9.19548 13.4014 9.71379 13.326 10.2112C12.6176 9.98831 11.8954 9.68835 11.1882 9.32207C9.58396 8.49109 8.2867 7.43763 7.5549 6.51401C6.32712 4.9644 3.7252 5.07929 2.81216 7.09361C1.52531 9.93263 1.87831 13.2979 3.03503 16.0172C3.42274 16.9285 3.92707 17.8295 4.54322 18.6644C4.43774 18.6656 4.33683 18.6661 4.24116 18.6664ZM13.3335 25.3333C8.18238 25.3333 5.51882 23.4676 4.14155 21.5383C4.07967 21.4516 4.14207 21.3333 4.24856 21.3331C5.64968 21.3291 8.52568 21.2628 10.4225 20.1527C10.5206 20.0952 10.499 19.9505 10.3913 19.9144C5.9697 18.4277 3.45632 12.1315 5.24083 8.19453C5.28175 8.10427 5.40308 8.09236 5.46464 8.17005C7.50314 10.7429 11.9602 13.2629 15.838 13.3319C15.9222 13.3333 15.9858 13.2569 15.973 13.1738C15.8167 12.1607 15.22 6.66667 20.6668 6.66667C21.9675 6.66667 23.9027 7.30111 24.6155 7.95107C24.6484 7.98111 24.6931 7.99475 24.7368 7.986L27.7328 7.3868C27.8416 7.36504 27.9279 7.47793 27.8783 7.57717L26.02 11.2936C26.0071 11.3194 26.0031 11.349 26.008 11.3774C27.3095 18.6933 21.3175 25.3333 13.3335 25.3333Z" fill="#DCDFE6"/>
</svg>
